<svg width="65" height="65" viewBox="0 0 65 65" fill="none" xmlns="http://www.w3.org/2000/svg">
<mask id="mask0_406_66" style="mask-type:alpha" maskUnits="userSpaceOnUse" x="0" y="0" width="65" height="65">
<rect x="65" y="65" width="65" height="65" transform="rotate(180 65 65)" fill="#D9D9D9"/>
</mask>
<g mask="url(#mask0_406_66)">
<path d="M49.5625 16.25L43.3333 27.0833C46.3125 27.0833 48.8628 28.1441 50.9844 30.2656C53.1059 32.3872 54.1667 34.9375 54.1667 37.9167C54.1667 40.8958 53.1059 43.4462 50.9844 45.5677C48.8628 47.6892 46.3125 48.75 43.3333 48.75C40.3542 48.75 37.8038 47.6892 35.6823 45.5677C33.5608 43.4462 32.5 40.8958 32.5 37.9167C32.5 36.8785 32.6241 35.9193 32.8724 35.0391C33.1207 34.1589 33.4931 33.3125 33.9896 32.5L43.3333 16.25H49.5625ZM25.1875 16.25L18.9583 27.0833C21.9375 27.0833 24.4878 28.1441 26.6094 30.2656C28.7309 32.3872 29.7917 34.9375 29.7917 37.9167C29.7917 40.8958 28.7309 43.4462 26.6094 45.5677C24.4878 47.6892 21.9375 48.75 18.9583 48.75C15.9792 48.75 13.4288 47.6892 11.3073 45.5677C9.18576 43.4462 8.125 40.8958 8.125 37.9167C8.125 36.8785 8.24913 35.9193 8.49739 35.0391C8.74566 34.1589 9.11805 33.3125 9.61458 32.5L18.9583 16.25H25.1875Z" fill="white"/>
</g>
</svg>
