<svg width="65" height="65" viewBox="0 0 65 65" fill="none" xmlns="http://www.w3.org/2000/svg">
<mask id="mask0_406_65" style="mask-type:alpha" maskUnits="userSpaceOnUse" x="0" y="0" width="65" height="65">
<rect width="65" height="65" fill="#D9D9D9"/>
</mask>
<g mask="url(#mask0_406_65)">
<path d="M15.4375 48.75L21.6667 37.9167C18.6875 37.9167 16.1372 36.8559 14.0157 34.7344C11.8941 32.6128 10.8334 30.0625 10.8334 27.0833C10.8334 24.1042 11.8941 21.5538 14.0157 19.4323C16.1372 17.3108 18.6875 16.25 21.6667 16.25C24.6459 16.25 27.1962 17.3108 29.3178 19.4323C31.4393 21.5538 32.5 24.1042 32.5 27.0833C32.5 28.1215 32.3759 29.0807 32.1276 29.9609C31.8794 30.8411 31.507 31.6875 31.0105 32.5L21.6667 48.75H15.4375ZM39.8125 48.75L46.0417 37.9167C43.0625 37.9167 40.5122 36.8559 38.3907 34.7344C36.2691 32.6128 35.2084 30.0625 35.2084 27.0833C35.2084 24.1042 36.2691 21.5538 38.3907 19.4323C40.5122 17.3108 43.0625 16.25 46.0417 16.25C49.0209 16.25 51.5712 17.3108 53.6928 19.4323C55.8143 21.5538 56.875 24.1042 56.875 27.0833C56.875 28.1215 56.7509 29.0807 56.5027 29.9609C56.2544 30.8411 55.882 31.6875 55.3855 32.5L46.0417 48.75H39.8125Z" fill="white"/>
</g>
</svg>
