<svg width="17" height="17" viewBox="0 0 17 17" fill="none" xmlns="http://www.w3.org/2000/svg">
<mask id="mask0_416_76" style="mask-type:alpha" maskUnits="userSpaceOnUse" x="0" y="0" width="17" height="17">
<rect width="17" height="17" fill="#D9D9D9"/>
</mask>
<g mask="url(#mask0_416_76)">
<path d="M7.66667 11.9167H10.5C10.7007 11.9167 10.8689 11.8488 11.0047 11.713C11.1405 11.5773 11.2083 11.409 11.2083 11.2083V9.79167H9.79167V10.5H8.375V7.66667H9.79167V8.375H11.2083V6.95833C11.2083 6.75764 11.1405 6.58941 11.0047 6.45365C10.8689 6.31788 10.7007 6.25 10.5 6.25H7.66667C7.46597 6.25 7.29774 6.31788 7.16198 6.45365C7.02622 6.58941 6.95833 6.75764 6.95833 6.95833V11.2083C6.95833 11.409 7.02622 11.5773 7.16198 11.713C7.29774 11.8488 7.46597 11.9167 7.66667 11.9167ZM9.08333 16.1667C8.10347 16.1667 7.18264 15.9807 6.32083 15.6089C5.45903 15.237 4.70938 14.7323 4.07188 14.0948C3.43438 13.4573 2.92969 12.7076 2.55781 11.8458C2.18594 10.984 2 10.0632 2 9.08333C2 8.10347 2.18594 7.18264 2.55781 6.32083C2.92969 5.45903 3.43438 4.70938 4.07188 4.07188C4.70938 3.43438 5.45903 2.92969 6.32083 2.55781C7.18264 2.18594 8.10347 2 9.08333 2C10.0632 2 10.984 2.18594 11.8458 2.55781C12.7076 2.92969 13.4573 3.43438 14.0948 4.07188C14.7323 4.70938 15.237 5.45903 15.6089 6.32083C15.9807 7.18264 16.1667 8.10347 16.1667 9.08333C16.1667 10.0632 15.9807 10.984 15.6089 11.8458C15.237 12.7076 14.7323 13.4573 14.0948 14.0948C13.4573 14.7323 12.7076 15.237 11.8458 15.6089C10.984 15.9807 10.0632 16.1667 9.08333 16.1667ZM9.08333 14.75C10.6653 14.75 12.0052 14.201 13.1031 13.1031C14.201 12.0052 14.75 10.6653 14.75 9.08333C14.75 7.50139 14.201 6.16146 13.1031 5.06354C12.0052 3.96563 10.6653 3.41667 9.08333 3.41667C7.50139 3.41667 6.16146 3.96563 5.06354 5.06354C3.96563 6.16146 3.41667 7.50139 3.41667 9.08333C3.41667 10.6653 3.96563 12.0052 5.06354 13.1031C6.16146 14.201 7.50139 14.75 9.08333 14.75Z" fill="#888888"/>
</g>
</svg>
