<svg width="60" height="63" viewBox="0 0 60 63" fill="none" xmlns="http://www.w3.org/2000/svg">
<path d="M42.2061 23.473L43.627 22.0113L38.8969 17.1455V5.16851C38.8969 4.89434 38.7911 4.6314 38.6026 4.43754C38.4142 4.24367 38.1585 4.13476 37.892 4.13476H31.8626C31.5961 4.13476 31.3405 4.24367 31.152 4.43754C30.9636 4.6314 30.8577 4.89434 30.8577 5.16851V8.87552L22.524 0.302667C22.3355 0.108869 22.08 0 21.8135 0C21.5471 0 21.2915 0.108869 21.103 0.302667L0 22.0113L1.42094 23.473L21.8135 2.49524L42.2061 23.473ZM32.8675 6.20225H36.8871V15.078L32.8675 10.943V6.20225Z" fill="#BDAB87"/>
<path d="M42.9838 44.9491C42.8783 45.5198 42.897 46.1075 43.0384 46.6699C43.1799 47.2323 43.4406 47.7555 43.8019 48.202C44.1632 48.6485 44.6161 49.0071 45.1282 49.2522C45.6402 49.4973 46.1986 49.6228 46.7633 49.6195C47.2687 49.6212 47.7694 49.5196 48.2364 49.3207C48.7033 49.1218 49.1272 48.8295 49.4836 48.4607L53.8489 43.9701C54.3869 43.4167 54.7534 42.7116 54.9018 41.9439C55.0503 41.1762 54.9741 40.3805 54.6829 39.6574C54.3917 38.9343 53.8986 38.3162 53.266 37.8814C52.6333 37.4466 51.8895 37.2145 51.1286 37.2146C50.8959 37.2162 50.6638 37.2393 50.4352 37.2839L41.8443 28.4464C42.0041 27.5852 41.8778 26.6938 41.4856 25.9155C41.0933 25.1372 40.458 24.5172 39.6817 24.1553L22.5239 6.50514C22.3355 6.31134 22.0799 6.20247 21.8134 6.20247C21.547 6.20247 21.2914 6.31134 21.103 6.50514L3.01465 25.1126C2.82618 25.3064 2.72027 25.5693 2.72021 25.8434V44.4508C2.72021 44.725 2.82609 44.9879 3.01455 45.1818C3.203 45.3757 3.4586 45.4846 3.72512 45.4846H29.4367L19.9252 55.269C19.2038 56.0111 18.7984 57.0177 18.7984 58.0673C18.7984 59.1169 19.2038 60.1235 19.9252 60.8657C20.6467 61.6078 21.6252 62.0248 22.6455 62.0248C23.6658 62.0248 24.6443 61.6078 25.3658 60.8657L41.9116 43.8451L42.9838 44.9491ZM52.9656 41.1718C52.9645 41.6728 52.7713 42.1531 52.4279 42.5084L48.0626 46.999C47.7155 47.341 47.2521 47.5296 46.7715 47.5243C46.2909 47.519 45.8314 47.3202 45.4915 46.9706C45.1517 46.621 44.9585 46.1484 44.9533 45.654C44.9482 45.1596 45.1315 44.6828 45.4639 44.3257L49.8293 39.8352C50.0863 39.5712 50.4137 39.3915 50.77 39.3188C51.1263 39.2461 51.4955 39.2837 51.8311 39.4267C52.1666 39.5697 52.4535 39.8118 52.6554 40.1224C52.8573 40.433 52.9652 40.7981 52.9656 41.1718ZM40.9067 30.4064L48.5299 38.2484L48.4083 38.3734L44.043 42.864L43.9214 42.9891L36.2982 35.1471L36.4198 35.022L40.7851 30.5314L40.9067 30.4064ZM33.6995 34.1134C33.3363 34.113 32.9813 34.002 32.6793 33.7943C32.3774 33.5866 32.1421 33.2915 32.0031 32.9463C31.864 32.6011 31.8276 32.2213 31.8982 31.8548C31.9689 31.4883 32.1436 31.1515 32.4001 30.8871L36.7655 26.3965C37.1125 26.0544 37.576 25.8659 38.0566 25.8712C38.5372 25.8765 38.9967 26.0753 39.3365 26.4249C39.6764 26.7745 39.8696 27.2471 39.8748 27.7415C39.8799 28.2359 39.6966 28.7127 39.3642 29.0697L34.9988 33.5603C34.6534 33.9135 34.1865 34.1122 33.6995 34.1134ZM4.73003 43.4171V26.2714L21.8134 8.69771L36.7222 24.0344C36.2053 24.2288 35.7353 24.536 35.3445 24.9347L30.9792 29.4253C30.4411 29.9788 30.0747 30.6839 29.9262 31.4516C29.7778 32.2192 29.854 33.015 30.1452 33.7381C30.4363 34.4612 30.9295 35.0793 31.5621 35.5141C32.1948 35.9489 32.9386 36.1809 33.6995 36.1809C33.9322 36.1793 34.1642 36.1561 34.3929 36.1116L36.471 38.2484L31.4465 43.4171H4.73003ZM23.9449 59.4039C23.5978 59.746 23.1343 59.9345 22.6537 59.9292C22.1731 59.9239 21.7136 59.7252 21.3738 59.3755C21.0339 59.0259 20.8407 58.5533 20.8356 58.0589C20.8304 57.5645 21.0137 57.0877 21.3462 56.7307L37.892 39.7101L40.4907 42.3833L23.9449 59.4039Z" fill="#BDAB87"/>
<path d="M57.9902 56.0122V54.7883C57.9902 53.9658 57.6725 53.177 57.1072 52.5954C56.5418 52.0138 55.775 51.687 54.9754 51.687H45.9313C45.1317 51.687 44.3649 52.0138 43.7995 52.5954C43.2342 53.177 42.9166 53.9658 42.9166 54.7883V56.0122C42.3308 56.2253 41.8233 56.6193 41.4635 57.1404C41.1038 57.6614 40.9093 58.2841 40.9067 58.9233V60.9907C40.9067 61.2649 41.0126 61.5279 41.2011 61.7217C41.3895 61.9156 41.6451 62.0245 41.9116 62.0245H58.9951C59.2616 62.0245 59.5172 61.9156 59.7056 61.7217C59.8941 61.5279 60 61.2649 60 60.9907V58.9233C59.9974 58.2841 59.8029 57.6614 59.4432 57.1404C59.0834 56.6193 58.5759 56.2253 57.9902 56.0122ZM44.9264 54.7883C44.9264 54.5141 45.0322 54.2512 45.2207 54.0573C45.4092 53.8634 45.6648 53.7545 45.9313 53.7545H54.9754C55.242 53.7545 55.4976 53.8634 55.686 54.0573C55.8745 54.2512 55.9803 54.5141 55.9803 54.7883V55.822H44.9264V54.7883ZM57.9902 59.957H42.9166V58.9233C42.9166 58.6491 43.0224 58.3862 43.2109 58.1923C43.3993 57.9984 43.6549 57.8895 43.9215 57.8895H56.9852C57.2518 57.8895 57.5074 57.9984 57.6958 58.1923C57.8843 58.3862 57.9902 58.6491 57.9902 58.9233V59.957Z" fill="#BDAB87"/>
</svg>
