<svg width="87" height="72" viewBox="0 0 87 72" fill="none" xmlns="http://www.w3.org/2000/svg">
<path d="M43.125 7.553C44.1 7.558 45.0614 7.7822 45.938 8.209V2.866C45.945 2.4922 45.8775 2.1208 45.7393 1.7734C45.6012 1.426 45.3951 1.1096 45.1333 0.842699C44.8714 0.575899 44.559 0.3639 44.2142 0.2192C43.8695 0.0745001 43.4994 0 43.1255 0C42.7516 0 42.3815 0.0745001 42.0368 0.2192C41.692 0.3639 41.3796 0.575899 41.1177 0.842699C40.8559 1.1096 40.6498 1.426 40.5117 1.7734C40.3735 2.1208 40.306 2.4922 40.313 2.866V8.209C41.1891 7.7819 42.1503 7.5577 43.125 7.553Z" fill="white"/>
<path d="M25.0911 37.553H29.2841L18.9721 16.928H37.2181C36.7872 16.053 36.5631 15.0907 36.5631 14.1155C36.5631 13.1402 36.7872 12.1779 37.2181 11.303H10.3131C9.93926 11.2959 9.56776 11.3634 9.22036 11.5016C8.87296 11.6398 8.55656 11.8458 8.28976 12.1077C8.02286 12.3696 7.81096 12.682 7.66626 13.0267C7.52156 13.3715 7.44696 13.7416 7.44696 14.1155C7.44696 14.4893 7.52156 14.8594 7.66626 15.2042C7.81096 15.5489 8.02286 15.8613 8.28976 16.1232C8.55656 16.3851 8.87296 16.5911 9.22036 16.7293C9.56776 16.8675 9.93926 16.935 10.3131 16.928H14.7781L4.46606 37.553H8.65906L16.8751 21.121L25.0911 37.553Z" fill="white"/>
<path d="M71.472 16.928H75.938C76.6747 16.9141 77.3766 16.6117 77.8927 16.0858C78.4088 15.5599 78.6979 14.8524 78.6979 14.1155C78.6979 13.3787 78.4088 12.6712 77.8927 12.1453C77.3766 11.6194 76.6747 11.3169 75.938 11.303H49.032C49.4635 12.1778 49.688 13.1401 49.688 14.1155C49.688 15.091 49.4635 16.0533 49.032 16.928H67.278L56.966 37.553H61.159L69.375 21.121L77.591 37.553H81.784L71.472 16.928Z" fill="white"/>
<path d="M65.625 60.053H50.625C50.6268 58.7296 50.2756 57.4296 49.6077 56.287C48.9397 55.1445 47.9792 54.2007 46.825 53.553C46.5501 53.3904 46.3232 53.1577 46.1676 52.8787C46.0119 52.5997 45.933 52.2844 45.939 51.965V20.022C45.0642 20.4536 44.1019 20.678 43.1265 20.678C42.1511 20.678 41.1888 20.4536 40.314 20.022V51.961C40.3203 52.2814 40.2412 52.5976 40.085 52.8774C39.9288 53.1571 39.701 53.3903 39.425 53.553C38.2708 54.2007 37.3103 55.1445 36.6423 56.287C35.9744 57.4296 35.6232 58.7296 35.625 60.053H20.625C18.1386 60.053 15.754 61.0408 13.9959 62.7989C12.2377 64.5571 11.25 66.9416 11.25 69.428C11.25 69.9253 11.4475 70.4022 11.7992 70.7539C12.1508 71.1055 12.6277 71.303 13.125 71.303H73.125C73.6223 71.303 74.0992 71.1055 74.4508 70.7539C74.8025 70.4022 75 69.9253 75 69.428C75 68.1969 74.7575 66.9778 74.2864 65.8404C73.8152 64.703 73.1247 63.6695 72.2541 62.7989C71.3836 61.9284 70.3501 61.2378 69.2127 60.7667C68.0752 60.2955 66.8561 60.053 65.625 60.053Z" fill="white"/>
<path d="M60 50.678H78.75C80.7391 50.678 82.6468 49.8879 84.053 48.4813C85.46 47.0748 86.25 45.1672 86.25 43.178C86.25 42.9318 86.202 42.6879 86.108 42.4604C86.013 42.2328 85.875 42.0261 85.701 41.8519C85.527 41.6778 85.32 41.5397 85.093 41.4455C84.865 41.3513 84.621 41.3029 84.375 41.303H54.375C54.1287 41.3029 53.8849 41.3513 53.6573 41.4455C53.4298 41.5397 53.223 41.6778 53.0489 41.8519C52.8747 42.0261 52.7366 42.2328 52.6425 42.4604C52.5483 42.6879 52.4999 42.9318 52.5 43.178C52.5 45.1672 53.2902 47.0748 54.6967 48.4813C56.1032 49.8879 58.0109 50.678 60 50.678Z" fill="white"/>
<path d="M7.5 50.678H26.25C28.2391 50.678 30.1468 49.8879 31.5533 48.4813C32.9598 47.0748 33.75 45.1672 33.75 43.178C33.7501 42.9318 33.7017 42.6879 33.6075 42.4604C33.5134 42.2328 33.3753 42.0261 33.2011 41.8519C33.027 41.6778 32.8202 41.5397 32.5927 41.4455C32.3651 41.3513 32.1213 41.3029 31.875 41.303H1.875C1.6287 41.3029 1.3849 41.3513 1.1573 41.4455C0.929801 41.5397 0.723001 41.6778 0.548901 41.8519C0.374701 42.0261 0.2366 42.2328 0.1425 42.4604C0.0483001 42.6879 -9.98454e-05 42.9318 1.54642e-07 43.178C1.54642e-07 45.1672 0.790199 47.0748 2.1967 48.4813C3.6032 49.8879 5.5109 50.678 7.5 50.678Z" fill="white"/>
<path d="M43.125 17.865C45.1961 17.865 46.875 16.186 46.875 14.115C46.875 12.0439 45.1961 10.365 43.125 10.365C41.0539 10.365 39.375 12.0439 39.375 14.115C39.375 16.186 41.0539 17.865 43.125 17.865Z" fill="white"/>
</svg>
