<svg width="16" height="16" viewBox="0 0 16 16" fill="none" xmlns="http://www.w3.org/2000/svg">
<mask id="mask0_568_13" style="mask-type:alpha" maskUnits="userSpaceOnUse" x="0" y="0" width="16" height="16">
<rect width="16" height="16" fill="#D9D9D9"/>
</mask>
<g mask="url(#mask0_568_13)">
<path d="M8.00002 7.99998C8.36669 7.99998 8.68058 7.86942 8.94169 7.60831C9.2028 7.3472 9.33335 7.03331 9.33335 6.66665C9.33335 6.29998 9.2028 5.98609 8.94169 5.72498C8.68058 5.46387 8.36669 5.33331 8.00002 5.33331C7.63335 5.33331 7.31947 5.46387 7.05835 5.72498C6.79724 5.98609 6.66669 6.29998 6.66669 6.66665C6.66669 7.03331 6.79724 7.3472 7.05835 7.60831C7.31947 7.86942 7.63335 7.99998 8.00002 7.99998ZM8.00002 14.6666C6.21113 13.1444 4.87502 11.7305 3.99169 10.425C3.10835 9.11942 2.66669 7.91109 2.66669 6.79998C2.66669 5.13331 3.2028 3.80554 4.27502 2.81665C5.34724 1.82776 6.58891 1.33331 8.00002 1.33331C9.41113 1.33331 10.6528 1.82776 11.725 2.81665C12.7972 3.80554 13.3334 5.13331 13.3334 6.79998C13.3334 7.91109 12.8917 9.11942 12.0084 10.425C11.125 11.7305 9.78891 13.1444 8.00002 14.6666Z" fill="#F6F5F0"/>
</g>
</svg>
