<svg width="30" height="31" viewBox="0 0 30 31" xmlns="http://www.w3.org/2000/svg">
<g clip-path="url(#clip0_413_45)">
<path fill-rule="evenodd" clip-rule="evenodd" d="M5.8125 21.1357C5.89983 21.0193 6.01306 20.9248 6.14324 20.8597C6.27341 20.7946 6.41696 20.7607 6.5625 20.7607H11.25C11.4986 20.7607 11.7371 20.8595 11.9129 21.0353C12.0887 21.2111 12.1875 21.4496 12.1875 21.6982C12.1875 21.9469 12.0887 22.1853 11.9129 22.3612C11.7371 22.537 11.4986 22.6357 11.25 22.6357H7.03125L2.8125 28.2607H27.1875L22.9688 22.6357H18.75C18.5014 22.6357 18.2629 22.537 18.0871 22.3612C17.9113 22.1853 17.8125 21.9469 17.8125 21.6982C17.8125 21.4496 17.9113 21.2111 18.0871 21.0353C18.2629 20.8595 18.5014 20.7607 18.75 20.7607H23.4375C23.583 20.7607 23.7266 20.7946 23.8568 20.8597C23.9869 20.9248 24.1002 21.0193 24.1875 21.1357L29.8125 28.6357C29.917 28.775 29.9806 28.9406 29.9962 29.114C30.0118 29.2875 29.9789 29.4618 29.901 29.6175C29.8232 29.7732 29.7035 29.9042 29.5554 29.9957C29.4073 30.0873 29.2366 30.1357 29.0625 30.1357H0.9375C0.763395 30.1357 0.59273 30.0873 0.444628 29.9957C0.296525 29.9042 0.176837 29.7732 0.098975 29.6175C0.0211129 29.4618 -0.011847 29.2875 0.00378859 29.114C0.0194242 28.9406 0.0830375 28.775 0.1875 28.6357L5.8125 21.1357Z" fill="#AE976E"/>
<path fill-rule="evenodd" clip-rule="evenodd" d="M7.5 7.63578C7.50014 6.19245 7.91673 4.77982 8.6998 3.56739C9.48287 2.35496 10.5992 1.39423 11.9147 0.80048C13.2302 0.206732 14.6892 0.00519006 16.1164 0.220036C17.5437 0.434882 18.8786 1.05699 19.961 2.01171C21.0435 2.96643 21.8275 4.21321 22.2189 5.60244C22.6104 6.99168 22.5926 8.46435 22.1678 9.84375C21.7431 11.2232 20.9293 12.4507 19.8242 13.3791C18.719 14.3075 17.3695 14.8972 15.9375 15.0777V25.4483C15.9375 25.6969 15.8387 25.9354 15.6629 26.1112C15.4871 26.287 15.2486 26.3858 15 26.3858C14.7514 26.3858 14.5129 26.287 14.3371 26.1112C14.1613 25.9354 14.0625 25.6969 14.0625 25.4483V15.0795C12.2493 14.8511 10.5819 13.9685 9.37353 12.5975C8.16514 11.2265 7.49892 9.4633 7.5 7.63578Z" fill="#AE976E"/>
</g>
<defs>
<clipPath id="clip0_413_45">
<rect width="30" height="30" fill="white" transform="translate(0 0.135742)"/>
</clipPath>
</defs>
</svg>
