<svg width="26" height="26" viewBox="0 0 26 26" fill="none" xmlns="http://www.w3.org/2000/svg">
<mask id="mask0_403_43" style="mask-type:alpha" maskUnits="userSpaceOnUse" x="0" y="0" width="26" height="26">
<rect width="26" height="26" fill="#D9D9D9"/>
</mask>
<g mask="url(#mask0_403_43)">
<path d="M13 23.8334C11.0861 23.8334 9.52433 23.531 8.3146 22.9261C7.10488 22.3213 6.50002 21.5404 6.50002 20.5834C6.50002 20.1501 6.63092 19.7483 6.89273 19.3782C7.15453 19.0081 7.52016 18.6876 7.9896 18.4167L9.69585 20.0147C9.53335 20.0869 9.35731 20.1681 9.16773 20.2584C8.97815 20.3487 8.82919 20.457 8.72085 20.5834C8.95558 20.8723 9.49724 21.1251 10.3459 21.3417C11.1945 21.5584 12.0792 21.6667 13 21.6667C13.9209 21.6667 14.8101 21.5584 15.6677 21.3417C16.5254 21.1251 17.0715 20.8723 17.3063 20.5834C17.1799 20.439 17.0174 20.3216 16.8188 20.2313C16.6202 20.1411 16.4306 20.0598 16.25 19.9876L17.9292 18.3626C18.4347 18.6515 18.8229 18.981 19.0938 19.3511C19.3646 19.7213 19.5 20.132 19.5 20.5834C19.5 21.5404 18.8952 22.3213 17.6854 22.9261C16.4757 23.531 14.9139 23.8334 13 23.8334ZM13 20.5834C10.4542 18.7056 8.55384 16.882 7.29898 15.1126C6.04412 13.3431 5.41669 11.6098 5.41669 9.91258C5.41669 8.63064 5.6469 7.50668 6.10731 6.54071C6.56773 5.57473 7.15905 4.76675 7.88127 4.11675C8.60349 3.46675 9.41599 2.97925 10.3188 2.65425C11.2215 2.32925 12.1153 2.16675 13 2.16675C13.8847 2.16675 14.7785 2.32925 15.6813 2.65425C16.584 2.97925 17.3965 3.46675 18.1188 4.11675C18.841 4.76675 19.4323 5.57473 19.8927 6.54071C20.3531 7.50668 20.5834 8.63064 20.5834 9.91258C20.5834 11.6098 19.9559 13.3431 18.7011 15.1126C17.4462 16.882 15.5459 18.7056 13 20.5834ZM13 11.9167C13.5959 11.9167 14.1059 11.7046 14.5302 11.2803C14.9545 10.856 15.1667 10.3459 15.1667 9.75008C15.1667 9.15425 14.9545 8.64418 14.5302 8.21987C14.1059 7.79557 13.5959 7.58341 13 7.58341C12.4042 7.58341 11.8941 7.79557 11.4698 8.21987C11.0455 8.64418 10.8334 9.15425 10.8334 9.75008C10.8334 10.3459 11.0455 10.856 11.4698 11.2803C11.8941 11.7046 12.4042 11.9167 13 11.9167Z" fill="#AE976E"/>
</g>
</svg>
