<svg width="30" height="31" viewBox="0 0 30 31" fill="none" xmlns="http://www.w3.org/2000/svg">
<g clip-path="url(#clip0_413_39)">
<path d="M30 15.1357C30 19.114 28.4196 22.9293 25.6066 25.7423C22.7936 28.5554 18.9782 30.1357 15 30.1357C11.0218 30.1357 7.20644 28.5554 4.3934 25.7423C1.58035 22.9293 0 19.114 0 15.1357C0 11.1575 1.58035 7.34219 4.3934 4.52914C7.20644 1.7161 11.0218 0.135742 15 0.135742C18.9782 0.135742 22.7936 1.7161 25.6066 4.52914C28.4196 7.34219 30 11.1575 30 15.1357ZM15 6.69824C15 6.4496 14.9012 6.21114 14.7254 6.03533C14.5496 5.85951 14.3111 5.76074 14.0625 5.76074C13.8139 5.76074 13.5754 5.85951 13.3996 6.03533C13.2238 6.21114 13.125 6.4496 13.125 6.69824V17.0107C13.1251 17.176 13.1688 17.3383 13.2518 17.4812C13.3347 17.6241 13.454 17.7425 13.5975 17.8245L20.16 21.5745C20.3754 21.6909 20.6277 21.7184 20.8631 21.6512C21.0985 21.584 21.2983 21.4274 21.4197 21.2149C21.5412 21.0023 21.5747 20.7507 21.5131 20.5138C21.4514 20.2769 21.2996 20.0734 21.09 19.947L15 16.467V6.69824Z" fill="#F6F6F6"/>
</g>
<defs>
<clipPath id="clip0_413_39">
<rect width="30" height="30" fill="white" transform="translate(0 0.135742)"/>
</clipPath>
</defs>
</svg>
