<svg width="445" height="421" viewBox="0 0 445 421" fill="none" xmlns="http://www.w3.org/2000/svg">
<path d="M434.252 196.708L248.387 10.8431C241.345 3.80005 232.694 0.279053 222.41 0.279053C211.943 0.279053 203.374 3.80005 196.713 10.8431L10.848 196.708C3.615 203.94 0 212.604 0 222.692C0 232.589 3.619 241.151 10.848 248.385L32.259 269.794C39.113 277.025 47.679 280.649 57.956 280.649C68.234 280.649 76.798 277.025 83.653 269.794L167.592 186.143V387.141C167.592 397.031 171.159 405.077 178.298 411.267C185.437 417.451 194.05 420.54 204.135 420.54H240.68C250.769 420.54 259.378 417.45 266.517 411.267C273.656 405.079 277.229 397.031 277.229 387.141V186.144L361.167 269.795C368.015 277.026 376.58 280.65 386.867 280.65C396.949 280.65 405.614 277.026 412.842 269.795L434.251 248.386C441.294 240.96 444.818 232.398 444.818 222.693C444.819 212.795 441.295 204.134 434.252 196.708Z" fill="white"/>
</svg>
