<svg width="16" height="16" viewBox="0 0 16 16" fill="none" xmlns="http://www.w3.org/2000/svg">
<mask id="mask0_568_30" style="mask-type:alpha" maskUnits="userSpaceOnUse" x="0" y="0" width="16" height="16">
<rect width="16" height="16" fill="#D9D9D9"/>
</mask>
<g mask="url(#mask0_568_30)">
<path d="M13.3001 14C11.9112 14 10.539 13.6972 9.1834 13.0917C7.82784 12.4861 6.59451 11.6278 5.48339 10.5167C4.37228 9.40556 3.51395 8.17222 2.90839 6.81667C2.30284 5.46111 2.00006 4.08889 2.00006 2.7C2.00006 2.5 2.06673 2.33333 2.20006 2.2C2.33339 2.06667 2.50006 2 2.70006 2H5.40006C5.55562 2 5.69451 2.05278 5.81673 2.15833C5.93895 2.26389 6.01117 2.38889 6.03339 2.53333L6.46673 4.86667C6.48895 5.04444 6.4834 5.19444 6.45006 5.31667C6.41673 5.43889 6.35562 5.54444 6.26673 5.63333L4.65006 7.26667C4.87228 7.67778 5.13617 8.075 5.44173 8.45833C5.74728 8.84167 6.0834 9.21111 6.45006 9.56667C6.79451 9.91111 7.15562 10.2306 7.5334 10.525C7.91117 10.8194 8.31117 11.0889 8.7334 11.3333L10.3001 9.76667C10.4001 9.66667 10.5306 9.59167 10.6917 9.54167C10.8528 9.49167 11.0112 9.47778 11.1667 9.5L13.4667 9.96667C13.6223 10.0111 13.7501 10.0917 13.8501 10.2083C13.9501 10.325 14.0001 10.4556 14.0001 10.6V13.3C14.0001 13.5 13.9334 13.6667 13.8001 13.8C13.6667 13.9333 13.5001 14 13.3001 14Z" fill="#F6F5F0"/>
</g>
</svg>
