<svg width="30" height="31" viewBox="0 0 30 31" fill="none" xmlns="http://www.w3.org/2000/svg">
<path d="M25.6171 4.38107C24.2358 2.98635 22.5906 1.88065 20.7774 1.12848C18.9643 0.376313 17.0195 -0.00727176 15.0565 0.000104392C6.83136 0.000104392 0.128076 6.70151 0.120542 14.9285C0.120542 17.5635 0.809895 20.1269 2.11138 22.3965L0 30.1357L7.91813 28.0601C10.1076 29.2547 12.5623 29.8797 15.0565 29.8777H15.064C23.2911 29.8777 29.9925 23.1763 30 14.9417C30.0017 12.9792 29.6151 11.0358 28.8626 9.22337C28.1101 7.41092 27.0083 5.76523 25.6171 4.38107ZM15.0565 27.35C12.8324 27.3483 10.6496 26.7499 8.73556 25.6173L8.28352 25.346L3.58614 26.5778L4.84053 21.9953L4.54671 21.5226C3.30325 19.5455 2.64562 17.2566 2.65005 14.921C2.65005 8.09151 8.21949 2.52019 15.064 2.52019C16.6946 2.51727 18.3097 2.83713 19.8161 3.46135C21.3225 4.08557 22.6904 5.00179 23.841 6.15719C24.9954 7.30827 25.9106 8.67641 26.5338 10.1828C27.1571 11.6892 27.476 13.304 27.4724 14.9342C27.4648 21.7881 21.8954 27.35 15.0565 27.35ZM21.8653 18.057C21.4942 17.8705 19.6616 16.9683 19.3169 16.8403C18.9741 16.7178 18.7236 16.6538 18.4788 17.0267C18.2283 17.3978 17.5126 18.2434 17.2978 18.4864C17.0831 18.7369 16.8609 18.7652 16.4879 18.5806C16.1169 18.3922 14.9134 18.0005 13.4895 16.7254C12.3782 15.7365 11.6342 14.5123 11.412 14.1412C11.1973 13.7683 11.3913 13.5687 11.5777 13.3822C11.7416 13.2165 11.9488 12.9452 12.1352 12.7305C12.3236 12.5158 12.3857 12.3576 12.5082 12.109C12.6306 11.8566 12.5722 11.6419 12.4799 11.4554C12.3857 11.2689 11.6418 9.42878 11.3272 8.68669C11.0259 7.95402 10.7189 8.05573 10.4891 8.04631C10.2744 8.03313 10.0239 8.03313 9.77335 8.03313C9.5842 8.03794 9.39808 8.08174 9.22664 8.16179C9.0552 8.24184 8.90212 8.35642 8.77699 8.49835C8.4342 8.87127 7.47551 9.77346 7.47551 11.6136C7.47551 13.4538 8.81278 15.2224 9.00113 15.4729C9.18571 15.7234 11.6267 19.4884 15.3729 21.1082C16.2582 21.4943 16.955 21.7222 17.4994 21.8955C18.394 22.1818 19.202 22.1385 19.8462 22.0462C20.5619 21.9369 22.0517 21.1421 22.3663 20.2701C22.6752 19.3961 22.6752 18.6503 22.581 18.4939C22.4887 18.3357 22.2382 18.2434 21.8653 18.057Z" fill="#F6F6F6"/>
</svg>
